<svg xmlns="http://www.w3.org/2000/svg" xmlns:xlink="http://www.w3.org/1999/xlink" width="1080" zoomAndPan="magnify" viewBox="0 0 810 809.999993" height="1080" preserveAspectRatio="xMidYMid meet" version="1.0"><defs><g/><clipPath id="e9ea2c237a"><path d="M 129 341 L 247 341 L 247 460 L 129 460 Z M 129 341 " clip-rule="nonzero"/></clipPath><clipPath id="10ef60a482"><path d="M 91.625 379.816406 L 299.53125 306.351562 L 355.25 464.046875 L 147.347656 537.507812 Z M 91.625 379.816406 " clip-rule="nonzero"/></clipPath><clipPath id="b3508e07d9"><path d="M 91.625 379.816406 L 299.53125 306.351562 L 355.25 464.046875 L 147.347656 537.507812 Z M 91.625 379.816406 " clip-rule="nonzero"/></clipPath><clipPath id="1a70e96f6b"><path d="M 147 387 L 297 387 L 297 510 L 147 510 Z M 147 387 " clip-rule="nonzero"/></clipPath><clipPath id="80a83bab01"><path d="M 91.625 379.816406 L 299.53125 306.351562 L 355.25 464.046875 L 147.347656 537.507812 Z M 91.625 379.816406 " clip-rule="nonzero"/></clipPath><clipPath id="ffe3fe1eca"><path d="M 91.625 379.816406 L 299.53125 306.351562 L 355.25 464.046875 L 147.347656 537.507812 Z M 91.625 379.816406 " clip-rule="nonzero"/></clipPath><clipPath id="0bd98bd43d"><path d="M 122 386 L 253 386 L 253 476 L 122 476 Z M 122 386 " clip-rule="nonzero"/></clipPath><clipPath id="bb6fc5c4b7"><path d="M 91.625 379.816406 L 299.53125 306.351562 L 355.25 464.046875 L 147.347656 537.507812 Z M 91.625 379.816406 " clip-rule="nonzero"/></clipPath><clipPath id="d13ded5e72"><path d="M 91.625 379.816406 L 299.53125 306.351562 L 355.25 464.046875 L 147.347656 537.507812 Z M 91.625 379.816406 " clip-rule="nonzero"/></clipPath><clipPath id="ae3779fd87"><path d="M 234 319 L 304 319 L 304 399 L 234 399 Z M 234 319 " clip-rule="nonzero"/></clipPath><clipPath id="c4c0522a00"><path d="M 91.625 379.816406 L 299.53125 306.351562 L 355.25 464.046875 L 147.347656 537.507812 Z M 91.625 379.816406 " clip-rule="nonzero"/></clipPath><clipPath id="0f268d9546"><path d="M 91.625 379.816406 L 299.53125 306.351562 L 355.25 464.046875 L 147.347656 537.507812 Z M 91.625 379.816406 " clip-rule="nonzero"/></clipPath></defs><g clip-path="url(#e9ea2c237a)"><g clip-path="url(#10ef60a482)"><g clip-path="url(#b3508e07d9)"><path fill="#ffffff" d="M 148.542969 453.816406 C 147.847656 452.230469 147.199219 450.609375 146.613281 448.945312 C 144.238281 442.226562 142.949219 435.394531 142.644531 428.625 C 147.714844 434.882812 158.480469 436.929688 165.976562 438.367188 C 168.167969 438.789062 170.390625 439.121094 172.542969 439.667969 C 175.566406 437.617188 178.519531 435.496094 181.40625 433.3125 C 180.148438 431.789062 179.042969 429.609375 178.980469 428.28125 C 178.835938 424.964844 181.902344 424.761719 184.4375 423.613281 C 192.742188 419.84375 185.234375 406.988281 187.238281 400.519531 C 188.703125 395.78125 193.53125 391.515625 191.90625 386.839844 C 190.550781 382.960938 185.378906 381.511719 183.9375 377.667969 C 183.792969 377.28125 183.6875 376.882812 183.613281 376.472656 C 183.316406 374.910156 183.390625 373.242188 182.757812 371.785156 C 181.480469 368.863281 177.941406 367.734375 174.863281 366.34375 C 179.359375 363.460938 184.253906 361.03125 189.515625 359.171875 C 196.339844 356.761719 203.296875 355.464844 210.167969 355.195312 C 210.121094 360.601562 216.839844 367.449219 222.042969 368.640625 C 225.953125 369.535156 230.714844 368.742188 233.382812 371.738281 C 233.851562 372.269531 234.183594 372.851562 234.425781 373.457031 C 238.464844 366.347656 242.03125 358.980469 245.085938 351.378906 C 245.535156 350.277344 245.847656 349.492188 246.167969 348.910156 C 227.496094 340.804688 205.84375 339.464844 185.136719 346.78125 C 141.65625 362.144531 118.863281 409.851562 134.226562 453.332031 C 134.964844 455.429688 135.78125 457.476562 136.664062 459.46875 C 140.707031 457.675781 144.660156 455.796875 148.542969 453.816406 Z M 148.542969 453.816406 " fill-opacity="1" fill-rule="nonzero"/></g></g></g><g clip-path="url(#1a70e96f6b)"><g clip-path="url(#80a83bab01)"><g clip-path="url(#ffe3fe1eca)"><path fill="#ffffff" d="M 279.820312 396.027344 C 279.367188 396.546875 279.042969 396.933594 278.898438 397.113281 C 268.765625 409.578125 257.222656 421.003906 244.535156 431.1875 C 244.691406 431.867188 244.910156 432.515625 245.261719 433.117188 C 247.207031 436.550781 251.902344 438.402344 255.652344 437.203125 C 257.382812 436.65625 259.175781 435.570312 260.882812 436.191406 C 261.914062 436.570312 262.632812 437.496094 263.261719 438.398438 C 267.371094 444.304688 270.300781 451.027344 271.824219 458.058594 C 272.132812 459.472656 272.402344 460.929688 272.960938 462.257812 C 264.828125 475.554688 252.25 486.253906 236.40625 491.851562 C 233.234375 492.972656 230.035156 493.847656 226.832031 494.492188 C 226.667969 493.921875 226.519531 493.355469 226.410156 492.78125 C 225.859375 489.863281 226.394531 486.757812 227.894531 484.195312 C 228.890625 482.5 230.351562 480.679688 229.746094 478.804688 C 229.089844 476.796875 226.582031 476.277344 224.691406 475.339844 C 220.996094 473.511719 219.109375 469.199219 220.414062 465.417969 C 222.113281 460.496094 223.597656 455.453125 225.058594 450.417969 C 225.554688 448.710938 226.039062 446.796875 225.21875 445.21875 C 225.210938 445.203125 225.203125 445.195312 225.195312 445.179688 C 213.851562 452.546875 201.824219 459 189.257812 464.421875 C 186.257812 465.71875 183.257812 466.933594 180.253906 468.09375 C 180.953125 470.992188 182.191406 473.777344 183.894531 476.027344 C 187.550781 480.859375 193.742188 483.378906 199.800781 483.453125 C 201.394531 483.46875 203.035156 483.335938 204.546875 483.835938 C 206.066406 484.332031 207.449219 485.6875 207.367188 487.277344 C 207.324219 488.226562 206.773438 489.183594 207.082031 490.082031 C 207.292969 490.707031 207.863281 491.121094 208.394531 491.496094 C 209.382812 492.179688 211.410156 493.941406 213.769531 495.886719 C 194.285156 496.109375 175.566406 488.152344 162.1875 474.222656 C 160.074219 474.84375 157.960938 475.433594 155.855469 475.980469 L 155.550781 476.058594 C 153.40625 476.617188 150.769531 477.296875 147.898438 477.875 C 169.496094 504.714844 206.453125 516.375 240.785156 504.242188 C 284.265625 488.878906 307.058594 441.171875 291.695312 397.691406 C 290.386719 393.980469 288.828125 390.417969 287.074219 387.019531 C 285.753906 389.011719 283.453125 391.773438 279.820312 396.027344 Z M 279.820312 396.027344 " fill-opacity="1" fill-rule="nonzero"/></g></g></g><g clip-path="url(#0bd98bd43d)"><g clip-path="url(#bb6fc5c4b7)"><g clip-path="url(#d13ded5e72)"><path fill="#ffffff" d="M 230.203125 386.164062 C 229.246094 386.121094 208.648438 427.988281 148.597656 457.539062 C 145.054688 459.277344 134.238281 464.488281 130.992188 465.011719 C 127.308594 465.605469 123.675781 464.519531 124.929688 457.179688 C 123.59375 460.792969 121.589844 464.050781 122.984375 468.101562 C 127.125 480.179688 146.144531 475.101562 155.03125 472.792969 C 166.277344 469.882812 181.335938 463.398438 191.472656 457.722656 C 216.171875 443.878906 226.828125 430.792969 252.804688 403.800781 C 252.804688 403.800781 249.550781 394.5625 247.074219 387.585938 C 247.054688 387.578125 240.019531 386.625 230.203125 386.164062 Z M 230.203125 386.164062 " fill-opacity="1" fill-rule="nonzero"/></g></g></g><g clip-path="url(#ae3779fd87)"><g clip-path="url(#c4c0522a00)"><g clip-path="url(#0f268d9546)"><path fill="#ffffff" d="M 301.601562 320.074219 C 298.160156 317.34375 289.625 322.320312 286.894531 325.761719 L 283.941406 329.492188 L 243.0625 333.726562 C 241.871094 333.792969 240.691406 334.4375 239.871094 335.460938 C 238.15625 337.621094 238.664062 340.589844 240.890625 341.453125 L 266.128906 350.058594 L 251.972656 375.078125 L 240.890625 374.429688 C 239.585938 374.355469 238.332031 374.914062 237.523438 375.9375 L 234.878906 379.265625 C 234.257812 380.046875 234.710938 381.203125 235.699219 381.355469 L 250.71875 383.796875 L 256.292969 397.703125 C 256.664062 398.625 257.898438 398.808594 258.515625 398.027344 L 261.15625 394.699219 C 261.96875 393.675781 262.234375 392.320312 261.863281 391.074219 L 258.964844 381.273438 L 278.9375 361.503906 L 295.242188 387.898438 C 296.582031 389.875 299.585938 389.695312 301.300781 387.535156 C 302.121094 386.511719 302.476562 385.214844 302.269531 384.035156 L 296.453125 339.425781 L 299.40625 335.695312 C 302.136719 332.253906 305.042969 322.804688 301.601562 320.074219 Z M 297.910156 333.074219 C 296.46875 326.632812 289.480469 326.351562 289.480469 326.351562 C 289.480469 326.351562 294.699219 321.214844 298.234375 324.03125 C 301.960938 327 297.910156 333.074219 297.910156 333.074219 Z M 297.910156 333.074219 " fill-opacity="1" fill-rule="nonzero"/></g></g></g><g fill="#ffffff" fill-opacity="1"><g transform="translate(306.539682, 481.284538)"><g><path d="M 5.046875 0 L 5.046875 -114.0625 L 39.828125 -114.0625 L 49.390625 -44.484375 L 58.953125 -114.0625 L 94.015625 -114.0625 L 94.015625 0 L 73.15625 0 L 73.15625 -82.1875 L 60.015625 0 L 39.5625 0 L 25.625 -82.1875 L 25.625 0 Z M 5.046875 0 "/></g></g></g><g fill="#ffffff" fill-opacity="1"><g transform="translate(405.588337, 481.284538)"><g><path d="M 1.984375 0 L 13.015625 -114.0625 L 51.65625 -114.0625 L 62.546875 0 L 40.890625 0 L 39.296875 -18.453125 L 25.5 -18.453125 L 24.171875 0 Z M 27.21875 -36.640625 L 37.578125 -36.640625 L 32.53125 -94.671875 L 31.46875 -94.671875 Z M 27.21875 -36.640625 "/></g></g></g><g fill="#ffffff" fill-opacity="1"><g transform="translate(469.983247, 481.284538)"><g><path d="M 14.875 0 L 14.875 -92.15625 L 1.328125 -92.15625 L 1.328125 -114.0625 L 51.25 -114.0625 L 51.25 -92.15625 L 37.703125 -92.15625 L 37.703125 0 Z M 14.875 0 "/></g></g></g><g fill="#ffffff" fill-opacity="1"><g transform="translate(522.561362, 481.284538)"><g><path d="M 5.046875 0 L 5.046875 -114.0625 L 50.71875 -114.0625 L 50.71875 -92.015625 L 28.28125 -92.015625 L 28.28125 -69.84375 L 49.796875 -69.84375 L 49.796875 -48.328125 L 28.28125 -48.328125 L 28.28125 -22.171875 L 52.1875 -22.171875 L 52.1875 0 Z M 5.046875 0 "/></g></g></g><g fill="#ffffff" fill-opacity="1"><g transform="translate(577.263844, 481.284538)"><g><path d="M 31.46875 1.0625 C 22.082031 1.0625 15.109375 -1.59375 10.546875 -6.90625 C 5.992188 -12.21875 3.71875 -20.097656 3.71875 -30.546875 L 3.71875 -114.0625 L 25.890625 -114.0625 L 25.890625 -31.46875 C 25.890625 -27.84375 26.242188 -25.007812 26.953125 -22.96875 C 27.660156 -20.9375 29.164062 -19.921875 31.46875 -19.921875 C 33.769531 -19.921875 35.273438 -20.914062 35.984375 -22.90625 C 36.691406 -24.894531 37.046875 -27.75 37.046875 -31.46875 L 37.046875 -114.0625 L 59.21875 -114.0625 L 59.21875 -30.546875 C 59.21875 -20.097656 56.9375 -12.21875 52.375 -6.90625 C 47.820312 -1.59375 40.851562 1.0625 31.46875 1.0625 Z M 31.46875 1.0625 "/></g></g></g><g fill="#ffffff" fill-opacity="1"><g transform="translate(640.198257, 481.284538)"><g><path d="M 32.140625 1.0625 C 21.773438 1.0625 14.289062 -1.503906 9.6875 -6.640625 C 5.082031 -11.773438 2.78125 -20.050781 2.78125 -31.46875 L 2.78125 -42.625 L 25.234375 -42.625 L 25.234375 -28.421875 C 25.234375 -22.753906 27.046875 -19.921875 30.671875 -19.921875 C 32.703125 -19.921875 34.113281 -20.515625 34.90625 -21.703125 C 35.707031 -22.898438 36.109375 -24.914062 36.109375 -27.75 C 36.109375 -31.46875 35.664062 -34.539062 34.78125 -36.96875 C 33.894531 -39.40625 32.765625 -41.441406 31.390625 -43.078125 C 30.023438 -44.722656 27.570312 -47.269531 24.03125 -50.71875 L 14.203125 -60.546875 C 6.585938 -67.984375 2.78125 -76.21875 2.78125 -85.25 C 2.78125 -94.976562 5.015625 -102.390625 9.484375 -107.484375 C 13.960938 -112.578125 20.492188 -115.125 29.078125 -115.125 C 39.347656 -115.125 46.738281 -112.398438 51.25 -106.953125 C 55.769531 -101.515625 58.03125 -92.992188 58.03125 -81.390625 L 34.78125 -81.390625 L 34.65625 -89.234375 C 34.65625 -90.734375 34.234375 -91.925781 33.390625 -92.8125 C 32.554688 -93.695312 31.382812 -94.140625 29.875 -94.140625 C 28.101562 -94.140625 26.773438 -93.648438 25.890625 -92.671875 C 25.003906 -91.703125 24.5625 -90.378906 24.5625 -88.703125 C 24.5625 -84.984375 26.6875 -81.128906 30.9375 -77.140625 L 44.21875 -64.40625 C 47.3125 -61.394531 49.875 -58.535156 51.90625 -55.828125 C 53.945312 -53.128906 55.585938 -49.941406 56.828125 -46.265625 C 58.066406 -42.597656 58.6875 -38.242188 58.6875 -33.203125 C 58.6875 -21.953125 56.628906 -13.425781 52.515625 -7.625 C 48.398438 -1.832031 41.609375 1.0625 32.140625 1.0625 Z M 32.140625 1.0625 "/></g></g></g><g fill="#ffffff" fill-opacity="1"><g transform="translate(295.297928, 512.953795)"><g><path d="M 21.105469 -1.972656 C 38.632812 -12.121094 53.820312 -52.726562 51.339844 -73.613281 C 50.242188 -82.886719 45.933594 -86.027344 42.574219 -87.046875 C 33.15625 -89.824219 16.578125 -83.25 9.054688 -75.949219 C 5.183594 -72.152344 4.964844 -69.230469 5.476562 -67.402344 C 6.132812 -64.847656 8.542969 -63.09375 12.707031 -62.074219 C 13.730469 -61.78125 14.75 -62.4375 15.042969 -63.460938 C 15.261719 -64.484375 14.679688 -65.503906 13.65625 -65.726562 C 11.027344 -66.382812 9.421875 -67.332031 9.128906 -68.425781 C 8.835938 -69.523438 9.785156 -71.273438 11.757812 -73.171875 C 18.328125 -79.601562 33.664062 -85.734375 41.480469 -83.398438 C 44.839844 -82.375 46.882812 -78.941406 47.539062 -73.171875 C 49.804688 -53.75 35.34375 -14.679688 19.207031 -5.332031 C 15.410156 -2.628906 10.371094 -2.773438 6.792969 -5.625 C 6.207031 -6.0625 5.476562 -6.207031 4.820312 -5.914062 C 4.164062 -5.695312 3.722656 -5.039062 3.652344 -4.382812 C 3.578125 -3.652344 3.871094 -2.921875 4.453125 -2.554688 C 6.9375 -0.65625 9.859375 0.363281 12.925781 0.363281 C 15.847656 0.363281 18.621094 -0.511719 21.105469 -1.972656 Z M 21.105469 -1.972656 "/></g></g></g><g fill="#ffffff" fill-opacity="1"><g transform="translate(340.136717, 512.953795)"><g><path d="M 80.109375 -18.550781 C 79.308594 -19.207031 78.066406 -19.058594 77.410156 -18.257812 C 77.261719 -18.039062 60.976562 1.824219 46.007812 -6.863281 C 44.035156 -8.253906 42.5 -10.152344 41.699219 -12.339844 C 40.3125 -15.117188 38.632812 -18.476562 33.957031 -17.746094 C 31.546875 -17.378906 27.824219 -14.3125 24.683594 -10.808594 C 24.539062 -10.589844 24.246094 -10.515625 24.027344 -10.589844 C 23.808594 -10.660156 23.585938 -10.808594 23.585938 -11.101562 C 23.003906 -14.386719 20.8125 -17.160156 17.746094 -18.476562 C 15.261719 -19.132812 11.246094 -19.863281 2.847656 -11.539062 C 2.410156 -11.171875 1.824219 -11.320312 1.898438 -11.902344 C 1.898438 -12.195312 3.359375 -18.109375 3.359375 -18.109375 C 3.578125 -19.132812 2.921875 -20.15625 1.898438 -20.449219 C 0.875 -20.667969 -0.144531 -20.007812 -0.4375 -18.988281 L -3.945312 -3.578125 C -4.164062 -2.703125 -3.722656 -1.824219 -2.921875 -1.386719 C -2.042969 -1.023438 -1.09375 -1.242188 -0.585938 -1.972656 C 9.203125 -14.242188 14.019531 -15.410156 15.992188 -15.117188 C 17.964844 -14.75 20.59375 -10.808594 20.300781 -4.453125 C 20.300781 -3.578125 20.8125 -2.773438 21.6875 -2.554688 C 22.566406 -2.265625 23.441406 -2.628906 23.878906 -3.359375 C 26.875 -8.472656 32.714844 -13.65625 34.542969 -13.949219 C 36.292969 -14.242188 36.804688 -13.582031 38.265625 -10.660156 C 39.363281 -7.742188 41.40625 -5.257812 44.035156 -3.578125 C 47.101562 -1.753906 50.609375 -0.730469 54.1875 -0.730469 C 68.132812 -0.730469 79.820312 -15.042969 80.402344 -15.847656 C 81.058594 -16.648438 80.914062 -17.890625 80.109375 -18.550781 Z M 80.109375 -18.550781 "/></g></g></g><g fill="#ffffff" fill-opacity="1"><g transform="translate(417.034507, 512.953795)"><g><path d="M 60.175781 -19.058594 C 59.882812 -19.425781 59.371094 -19.644531 58.859375 -19.644531 C 58.347656 -19.644531 57.835938 -19.5 57.472656 -19.132812 C 47.394531 -9.566406 30.816406 -7.523438 18.914062 -6.792969 C 18.550781 -6.71875 18.328125 -7.304688 18.550781 -7.667969 C 19.5 -8.910156 20.15625 -10.371094 20.449219 -11.902344 C 21.03125 -15.847656 18.695312 -19.644531 14.824219 -20.738281 C 11.390625 -22.128906 7.667969 -20.007812 3.578125 -14.605469 C 3.285156 -14.242188 2.921875 -14.386719 2.992188 -14.824219 C 3.285156 -17.015625 3.578125 -19.132812 3.871094 -21.105469 C 4.015625 -21.835938 3.722656 -22.492188 3.214844 -22.929688 C 2.628906 -23.441406 1.898438 -23.515625 1.242188 -23.222656 C 0.585938 -23.003906 0.144531 -22.347656 0.0742188 -21.6875 C -0.730469 -15.847656 -1.679688 -9.785156 -2.703125 -3.945312 C -9.347656 9.421875 -16.578125 30.015625 -13.144531 33.226562 C -12.632812 33.738281 -11.902344 34.03125 -11.171875 34.03125 C -10.808594 34.03125 -10.515625 34.03125 -10.152344 33.882812 C -5.988281 32.425781 -1.972656 14.386719 1.023438 -2.921875 C 1.09375 -3.066406 1.09375 -3.140625 1.167969 -3.214844 C 3.214844 -7.742188 6.0625 -11.902344 9.492188 -15.480469 C 10.589844 -16.503906 12.195312 -17.671875 13.4375 -17.160156 C 15.921875 -16.140625 17.015625 -14.605469 16.648438 -12.5625 C 15.699219 -9.203125 12.78125 -6.644531 9.273438 -6.132812 C 8.835938 -6.132812 8.398438 -6.0625 7.960938 -6.0625 C 6.9375 -5.914062 6.207031 -5.039062 6.207031 -4.015625 C 6.351562 -2.992188 7.15625 -2.265625 8.179688 -2.265625 C 8.691406 -2.265625 9.203125 -2.265625 9.710938 -2.335938 C 11.101562 -2.484375 12.707031 -2.554688 14.53125 -2.628906 C 26.875 -3.359375 47.613281 -4.453125 60.101562 -16.359375 C 60.539062 -16.648438 60.6875 -17.160156 60.757812 -17.671875 C 60.757812 -18.183594 60.539062 -18.695312 60.175781 -19.058594 Z M -10.152344 27.824219 C -9.203125 23.441406 -8.03125 19.132812 -6.5 14.96875 C -7.375 19.351562 -8.617188 23.585938 -10.152344 27.824219 Z M -10.152344 27.824219 "/></g></g></g><g fill="#ffffff" fill-opacity="1"><g transform="translate(474.580049, 512.953795)"><g><path d="M 53.238281 -20.738281 C 52.871094 -21.105469 52.433594 -21.25 51.921875 -21.25 C 51.410156 -21.25 50.898438 -21.105469 50.535156 -20.738281 C 41.773438 -11.976562 29.355469 -7.960938 17.160156 -10.003906 C 16.210938 -10.222656 15.554688 -11.101562 15.699219 -12.050781 C 16.285156 -15.554688 15.992188 -19.132812 13.949219 -20.300781 C 12.632812 -21.03125 10.660156 -21.105469 8.324219 -17.160156 C 7.449219 -15.847656 7.15625 -14.242188 7.449219 -12.707031 C 7.8125 -11.171875 8.761719 -9.785156 10.078125 -8.980469 C 10.882812 -8.324219 9.933594 -7.230469 9.421875 -6.71875 C 8.03125 -5.039062 5.625 -4.746094 3.945312 -6.0625 C 1.824219 -7.011719 0.875 -9.347656 1.679688 -11.464844 C 2.628906 -15.335938 6.425781 -18.695312 7.8125 -18.695312 C 8.835938 -18.695312 9.710938 -19.570312 9.710938 -20.59375 C 9.785156 -21.617188 8.910156 -22.492188 7.886719 -22.566406 L 7.8125 -22.566406 C 4.164062 -22.566406 -0.730469 -17.597656 -2.042969 -12.414062 C -3.285156 -8.617188 -1.535156 -4.453125 2.117188 -2.703125 C 3.503906 -1.898438 5.039062 -1.535156 6.644531 -1.460938 C 9.785156 -1.605469 12.5625 -3.503906 13.875 -6.425781 C 14.019531 -6.644531 14.386719 -6.792969 14.679688 -6.71875 C 23.953125 -3.945312 40.894531 -5.695312 53.238281 -17.964844 C 53.601562 -18.328125 53.820312 -18.839844 53.820312 -19.351562 C 53.820312 -19.863281 53.601562 -20.375 53.238281 -20.738281 Z M 11.902344 -12.414062 C 11.101562 -13.144531 10.953125 -14.3125 11.613281 -15.191406 C 11.832031 -15.554688 11.976562 -15.773438 12.121094 -15.992188 C 12.195312 -14.824219 12.121094 -13.582031 11.902344 -12.414062 Z M 11.902344 -12.414062 "/></g></g></g><g fill="#ffffff" fill-opacity="1"><g transform="translate(525.041951, 512.953795)"><g><path d="M 62.949219 -19.207031 C 62.585938 -19.570312 62.144531 -19.789062 61.636719 -19.789062 C 61.125 -19.789062 60.613281 -19.570312 60.246094 -19.207031 C 47.613281 -6.863281 25.195312 -4.234375 20.375 -7.082031 C 17.089844 -8.980469 17.453125 -11.246094 19.789062 -15.773438 C 20.886719 -17.964844 22.128906 -20.519531 20.007812 -22.054688 C 18.039062 -23.515625 16.140625 -22.566406 14.460938 -21.6875 C 12.050781 -20.300781 9.347656 -19.570312 6.5 -19.570312 C 5.84375 -19.570312 5.257812 -20.738281 5.402344 -21.179688 C 9.492188 -30.160156 7.667969 -31.839844 7.011719 -32.496094 C 5.914062 -33.59375 4.234375 -33.519531 2.191406 -32.277344 C -1.167969 -29.867188 -2.628906 -25.558594 -1.460938 -21.542969 C -1.167969 -20.449219 -0.65625 -19.425781 0.0742188 -18.550781 C 0 -17.746094 0.363281 -17.015625 1.09375 -16.648438 C 1.535156 -16.429688 2.042969 -16.429688 2.554688 -16.578125 C 3.796875 -15.992188 5.183594 -15.699219 6.574219 -15.699219 C 9.566406 -15.628906 12.488281 -16.285156 15.117188 -17.746094 C 16.140625 -18.257812 16.503906 -17.820312 16.359375 -17.527344 C 14.605469 -14.09375 11.464844 -7.8125 18.476562 -3.722656 C 20.957031 -2.554688 23.734375 -2.042969 26.507812 -2.265625 C 36.734375 -2.265625 52.796875 -6.644531 62.875 -16.503906 C 63.242188 -16.796875 63.460938 -17.308594 63.460938 -17.820312 C 63.535156 -18.328125 63.316406 -18.839844 62.949219 -19.207031 Z M 2.117188 -23.222656 C 1.679688 -25.339844 2.410156 -27.53125 4.089844 -28.917969 C 3.578125 -26.945312 2.921875 -25.046875 2.117188 -23.148438 Z M 2.117188 -23.222656 "/></g></g></g><g fill="#ffffff" fill-opacity="1"><g transform="translate(584.924389, 512.953795)"><g><path d="M 50.097656 -19.863281 C 49.367188 -20.59375 48.125 -20.59375 47.394531 -19.789062 C 47.25 -19.644531 27.457031 0.292969 14.3125 -4.671875 C 8.472656 -6.9375 5.988281 -13.730469 5.039062 -20.449219 C 6.351562 -23.660156 8.542969 -28.992188 10.589844 -34.980469 C 10.808594 -35.710938 11.027344 -35.785156 11.902344 -35.855469 C 21.761719 -36.585938 31.546875 -36.953125 37.316406 -36.953125 C 38.414062 -36.953125 39.214844 -37.828125 39.214844 -38.851562 C 39.214844 -39.945312 38.414062 -40.75 37.316406 -40.75 C 31.765625 -40.75 22.636719 -40.3125 13.289062 -39.800781 C 12.925781 -39.726562 12.269531 -39.945312 12.78125 -41.261719 C 16.285156 -51.265625 18.769531 -61.417969 17.234375 -64.484375 C 15.699219 -67.550781 13.65625 -67.625 12.632812 -67.402344 C 7.230469 -66.382812 3.285156 -52.359375 1.535156 -40.894531 C 1.386719 -39.871094 0.875 -38.996094 -0.0742188 -38.921875 C -11.539062 -38.046875 -20.957031 -37.390625 -21.105469 -37.390625 C -22.199219 -37.316406 -23.003906 -36.441406 -22.929688 -35.34375 C -22.929688 -34.324219 -22.054688 -33.445312 -20.957031 -33.519531 L -20.8125 -33.519531 C -20.59375 -33.519531 -11.757812 -34.175781 -0.730469 -34.980469 C -0.363281 -35.054688 0 -34.980469 0.292969 -34.6875 C 0.585938 -34.46875 0.804688 -34.105469 0.804688 -33.738281 C -0.292969 -16.359375 4.089844 -4.453125 12.925781 -1.09375 C 14.824219 -0.4375 16.796875 -0.0742188 18.839844 -0.0742188 C 33.300781 -0.0742188 49.367188 -16.359375 50.167969 -17.089844 C 50.535156 -17.453125 50.679688 -17.964844 50.679688 -18.476562 C 50.679688 -18.988281 50.460938 -19.5 50.097656 -19.863281 Z M 5.402344 -41.042969 C 7.082031 -52.140625 10.441406 -60.90625 12.414062 -63.167969 C 12.632812 -63.316406 12.925781 -63.386719 13.21875 -63.316406 C 13.4375 -63.242188 13.65625 -63.09375 13.800781 -62.804688 C 14.679688 -60.90625 12.195312 -51.628906 8.472656 -40.601562 C 8.324219 -39.945312 7.8125 -39.433594 7.082031 -39.363281 C 6.71875 -39.289062 6.351562 -39.289062 5.914062 -39.289062 C 5.183594 -39.289062 5.332031 -40.457031 5.402344 -40.96875 Z M 4.527344 -29.574219 C 3.796875 -29.574219 4.089844 -34.6875 4.746094 -35.417969 C 5.332031 -35.785156 6.0625 -35.855469 6.644531 -35.492188 C 7.304688 -34.90625 5.332031 -29.574219 4.527344 -29.574219 Z M 4.527344 -29.574219 "/></g></g></g><g fill="#ffffff" fill-opacity="1"><g transform="translate(631.588882, 512.953795)"><g><path d="M 50.097656 -20.230469 C 49.730469 -20.59375 49.292969 -20.738281 48.78125 -20.738281 C 48.269531 -20.738281 47.761719 -20.59375 47.394531 -20.230469 C 40.382812 -13.582031 31.765625 -8.910156 22.347656 -6.644531 C 21.980469 -6.5 21.542969 -6.644531 21.324219 -6.9375 C 21.105469 -7.304688 21.03125 -7.667969 21.25 -8.03125 C 22.566406 -10.589844 22.273438 -13.65625 20.59375 -15.992188 C 19.570312 -17.378906 18.257812 -18.550781 16.722656 -19.425781 C 14.679688 -20.8125 12.414062 -22.417969 12.339844 -24.097656 C 12.414062 -25.046875 12.78125 -25.925781 13.4375 -26.65625 L 17.378906 -30.378906 C 18.109375 -31.109375 18.183594 -32.277344 17.527344 -33.007812 C 16.871094 -33.8125 15.773438 -33.957031 14.898438 -33.300781 C 13.363281 -32.132812 11.902344 -30.816406 10.660156 -29.285156 L -0.585938 -18.769531 C -1.09375 -18.328125 -1.316406 -17.597656 -1.167969 -16.941406 C -1.023438 -16.210938 -0.511719 -15.699219 0.144531 -15.480469 C 0.804688 -15.335938 1.535156 -15.480469 2.042969 -15.992188 L 7.59375 -21.179688 C 7.886719 -21.46875 8.253906 -21.542969 8.617188 -21.542969 C 8.980469 -21.46875 9.273438 -21.25 9.421875 -20.957031 C 10.808594 -19.058594 12.5625 -17.453125 14.53125 -16.285156 C 15.628906 -15.628906 16.578125 -14.898438 17.378906 -13.949219 C 18.109375 -13.144531 18.476562 -12.050781 18.257812 -10.953125 C 18.039062 -9.859375 17.378906 -8.910156 16.429688 -8.398438 C 11.757812 -5.769531 5.84375 -7.011719 2.628906 -11.320312 C 2.117188 -12.121094 0.949219 -12.414062 0.0742188 -11.832031 C -0.804688 -11.320312 -1.09375 -10.222656 -0.585938 -9.273438 C 1.824219 -5.113281 6.132812 -2.410156 10.953125 -2.042969 C 12.195312 -1.824219 13.363281 -1.753906 14.605469 -1.753906 C 26.945312 -1.753906 42.136719 -9.492188 50.097656 -17.527344 C 50.828125 -18.257812 50.828125 -19.5 50.097656 -20.230469 Z M 50.097656 -20.230469 "/></g></g></g></svg>